<?xml version="1.0" encoding="UTF-8" standalone="no"?>
<svg
   xmlns:dc="http://purl.org/dc/elements/1.1/"
   xmlns:cc="http://creativecommons.org/ns#"
   xmlns:rdf="http://www.w3.org/1999/02/22-rdf-syntax-ns#"
   xmlns:svg="http://www.w3.org/2000/svg"
   xmlns="http://www.w3.org/2000/svg"
   xmlns:sodipodi="http://sodipodi.sourceforge.net/DTD/sodipodi-0.dtd"
   xmlns:inkscape="http://www.inkscape.org/namespaces/inkscape"
   height="50"
   width="109"
   id="svg2"
   version="1.1"
   inkscape:version="0.91 r13725"
   sodipodi:docname="epic-logo.svg">
  <metadata
     id="metadata14">
    <rdf:RDF>
      <cc:Work
         rdf:about="">
        <dc:format>image/svg+xml</dc:format>
        <dc:type
           rdf:resource="http://purl.org/dc/dcmitype/StillImage" />
        <dc:title></dc:title>
      </cc:Work>
    </rdf:RDF>
  </metadata>
  <defs
     id="defs12" />
  <sodipodi:namedview
     pagecolor="#ffffff"
     bordercolor="#666666"
     borderopacity="1"
     objecttolerance="10"
     gridtolerance="10"
     guidetolerance="10"
     inkscape:pageopacity="0"
     inkscape:pageshadow="2"
     inkscape:window-width="640"
     inkscape:window-height="480"
     id="namedview10"
     showgrid="false"
     inkscape:zoom="9.5966347"
     inkscape:cx="51.326197"
     inkscape:cy="19.439188"
     inkscape:current-layer="svg2" />
  <path
     style="fill:#fff"
     d="m 0,22.516438 c 2.3465382,0.1504 4.1509521,-1.87495 4.6360633,-4.02462 C 5.807332,14.577488 4.7100803,10.317238 6.3164487,6.4901283 7.4197018,3.3919583 10.055306,0.96554829 13.179023,-1.7089844e-6 L 16.017674,4.4848383 c -2.436559,0.66375 -4.165956,2.85955 -4.53304,5.32606 -0.856196,4.1068397 0.180041,8.5575897 -1.7834089,12.4298197 -0.2510576,1.31346 -2.4905713,2.47553 -2.5605873,2.84751 2.7806377,1.35959 3.5018032,4.77761 3.8048722,7.59506 0.328076,3.61253 -0.333076,7.66122 1.898436,10.80151 0.451103,1.29542 3.083707,1.48392 2.947676,2.43343 l -2.612599,4.08177 C 9.4501675,48.890068 6.6115164,45.618438 5.8113329,41.836448 4.7410874,37.752668 6.038385,33.144498 3.7108511,29.387578 3.1077128,27.785358 0.81718743,27.753268 0,27.119588 l 0,-4.60215 z"
     id="path4170" />
  <g
     id="g4183"
     style="fill:#fff">
    <path
       id="path4168"
       d="m 36.996485,4.6021483 0,3.63961 -11.911732,0 0,5.1395697 8.503951,0 0,3.60752 -8.503951,0 0,6.22443 11.912733,0 0,3.63961 -16.116697,0 0,-22.2517497 z" />
    <path
       id="path4166"
       d="M 40.626953 4.6015625 L 40.626953 26.853516 L 44.830078 26.853516 L 44.830078 19.511719 L 52.283203 19.511719 C 56.550181 19.511719 58.365234 16.062532 58.365234 12.232422 C 58.365234 7.8909722 56.868574 4.6015625 52.1875 4.6015625 L 40.626953 4.6015625 z M 44.832031 8.1777344 L 51.105469 8.1777344 C 52.824864 8.1777344 53.748047 9.4880122 53.748047 12.201172 C 53.748047 14.722832 52.760168 16 51.009766 16 L 44.832031 16 L 44.832031 8.1777344 z "
       style="fill:#fff" />
    <path
       id="path4162"
       d="m 66.264198,26.853888 -4.203964,0 0,-22.2517397 4.203964,0 z"
       style="fill:#fff" />
    <path
       id="path4160"
       d="m 81.168617,4.0597183 c 2.038467,0 4.651066,0.35092 6.369461,0.82919 l -0.923212,3.70378 c -1.146263,-0.4151 -3.216738,-0.70287 -4.714081,-0.70287 -4.841111,0 -6.655527,0.8302 -6.655527,7.6622397 0,6.83203 1.814416,7.88581 6.655527,7.88581 1.497343,0 3.567818,-0.28775 4.714081,-0.70185 l 0.923212,3.76594 c -1.719395,0.47927 -4.330994,0.79912 -6.369461,0.79912 -7.038615,0 -10.414389,-2.71417 -10.414389,-11.78111 0,-9.0980197 3.375774,-11.4602497 10.414389,-11.4602497"
       style="fill:#fff" />
  </g>
  <g
     id="g4174"
     style="fill:#fff">
    <path
       id="path4158"
       d="m 30.483992,34.083978 c -0.833191,-0.29879 -2.434559,-0.53441 -3.929902,-0.53441 -2.370543,0 -3.352769,0.4913 -3.352769,1.94714 0,1.135 0.556128,1.64835 3.26775,1.90503 3.460794,0.36396 4.997146,1.64835 4.997146,4.47481 0,3.51027 -2.13549,4.68737 -6.427474,4.68737 -1.645378,0 -3.438789,-0.25666 -4.635063,-0.66174 l 0.620142,-2.44145 c 0.940216,0.29879 2.520578,0.53442 3.971911,0.53442 2.370544,0 3.437788,-0.42813 3.437788,-1.9692 0,-1.11294 -0.533122,-1.8198 -3.394778,-2.07548 -3.288754,-0.32085 -4.827107,-1.34957 -4.827107,-4.11085 0,-3.51027 2.178499,-4.85883 6.342454,-4.85883 1.623373,0 3.374774,0.27873 4.549044,0.66375 z"
       style="fill:#fff" />
    <path
       id="path4156"
       d="m 43.404955,46.265138 c -2.990686,-4.94506 -5.381234,-7.53489 -6.23643,-7.8778 0.91821,-0.66375 3.202734,-3.18942 5.808332,-7.04259 l 3.416784,0 c -2.733627,3.85317 -4.869117,6.22945 -5.616288,6.85009 0.726166,0.49229 3.117715,3.12524 6.086396,8.0703 z"
       style="fill:#fff" />
    <path
       id="path4154"
       d="m 37.14652,46.265138 -2.818647,0 0,-14.92039 2.818647,0 z"
       style="fill:#fff" />
    <path
       id="path4152"
       d="m 51.284763,46.265138 -2.818647,0 0,-14.92039 2.818647,0 z"
       style="fill:#fff" />
    <path
       id="path4150"
       d="m 57.862271,31.344748 0,12.45889 7.025612,0 0,2.4605 -9.844258,0 0,-14.91939 z"
       style="fill:#fff" />
    <path
       id="path4148"
       d="m 69.62897,31.344748 0,12.45889 7.025611,0 0,2.4605 -9.844258,0 0,-14.91939 z"
       style="fill:#fff" />
    <path
       id="path4146"
       d="m 88.017187,34.083978 c -0.833191,-0.29879 -2.434558,-0.53441 -3.928901,-0.53441 -2.370543,0 -3.353769,0.4913 -3.353769,1.94714 0,1.135 0.556128,1.64835 3.26775,1.90503 3.459793,0.36396 4.997146,1.64835 4.997146,4.47481 0,3.51027 -2.13549,4.68737 -6.427474,4.68737 -1.644378,0 -3.438789,-0.25666 -4.635064,-0.66174 l 0.620143,-2.44145 c 0.939215,0.29879 2.519578,0.53442 3.97091,0.53442 2.370544,0 3.438789,-0.42813 3.438789,-1.9692 0,-1.11294 -0.533122,-1.8198 -3.394778,-2.07548 -3.288755,-0.32085 -4.827108,-1.34957 -4.827108,-4.11085 0,-3.51027 2.1785,-4.85883 6.343455,-4.85883 1.622372,0 3.373774,0.27873 4.548043,0.66375 z"
       style="fill:#fff" />
  </g>
  <path
     style="fill:#fff"
     d="m 109,27.434428 c -2.34754,-0.1504 -4.15095,1.87495 -4.63606,4.02563 -1.17127,3.91833 -0.076,8.18159 -1.68139,12.01171 -1.10225,3.1062 -3.728854,5.55667 -6.863573,6.52823 l -2.837651,-4.43571 c 2.357541,-0.65472 4.124946,-2.70915 4.504033,-5.12353 0.912209,-4.18304 -0.17404,-8.72102 1.813416,-12.67747 0.249057,-1.32349 2.476565,-2.52266 2.560585,-2.89764 -2.780636,-1.31648 -3.508803,-4.71245 -3.805871,-7.50482 -0.319073,-3.62156 0.316073,-7.6802797 -1.940445,-10.8185597 -0.441101,-1.28339 -3.049699,-1.46888 -2.906666,-2.41237 L 95.818977,-1.7089843e-6 C 99.53783,1.1008983 102.39048,4.3444683 103.18867,8.1214383 c 1.07024,4.0807697 -0.22705,8.6879397 2.10048,12.4428397 0.60214,1.60124 2.89366,1.63332 3.71085,2.26699 l 0,4.60316 z"
     id="path8" />
</svg>
